<svg xmlns="http://www.w3.org/2000/svg" viewBox="0 0 600 600" width="600" height="600" role="img"><rect width="600" height="600" fill="#FBF3E4"/><defs><clipPath id="pracidsmileylime"><rect x="232" y="246" width="136" height="150" rx="10"/></clipPath></defs><path d="M 195 130 L 250 108 C 262 142, 338 142, 350 108 L 405 130 L 470 168 L 432 236 L 396 216 L 396 492 L 204 492 L 204 216 L 168 236 L 130 168 Z" fill="#B4FF39" stroke="#141414" stroke-width="9" stroke-linejoin="round"/><path d="M 250 108 C 262 142, 338 142, 350 108" fill="none" stroke="#141414" stroke-width="9"/><g clip-path="url(#pracidsmileylime)"><circle cx="300.0" cy="321.0" r="68.0" fill="#141414"/><ellipse cx="276.2" cy="304.0" rx="7.48" ry="12.24" fill="#B4FF39"/><ellipse cx="323.8" cy="304.0" rx="7.48" ry="12.24" fill="#B4FF39"/><path d="M 266.0 333.24 Q 300.0 369.96 334.0 333.24" stroke="#B4FF39" stroke-width="10.88" fill="none" stroke-linecap="round"/></g><rect x="232" y="246" width="136" height="150" rx="10" fill="none" stroke="#141414" stroke-width="6"/><path d="M 204 470 L 396 470" stroke="#141414" stroke-width="5" opacity=".45"/></svg>