<svg xmlns="http://www.w3.org/2000/svg" viewBox="0 0 600 600" width="600" height="600" role="img"><rect width="600" height="600" fill="#FBF3E4"/><defs><clipPath id="prcosmiccheckerblue"><rect x="232" y="246" width="136" height="150" rx="10"/></clipPath></defs><path d="M 195 130 L 250 108 C 262 142, 338 142, 350 108 L 405 130 L 470 168 L 432 236 L 396 216 L 396 492 L 204 492 L 204 216 L 168 236 L 130 168 Z" fill="#2D7DFF" stroke="#141414" stroke-width="9" stroke-linejoin="round"/><path d="M 250 108 C 262 142, 338 142, 350 108" fill="none" stroke="#141414" stroke-width="9"/><g clip-path="url(#prcosmiccheckerblue)"><rect x="232" y="246" width="136" height="150" fill="#B4FF39"/><rect x="254.7" y="246.0" width="22.7" height="25.0" fill="#2D7DFF"/><rect x="300.0" y="246.0" width="22.7" height="25.0" fill="#2D7DFF"/><rect x="345.3" y="246.0" width="22.7" height="25.0" fill="#2D7DFF"/><rect x="232.0" y="271.0" width="22.7" height="25.0" fill="#2D7DFF"/><rect x="277.3" y="271.0" width="22.7" height="25.0" fill="#2D7DFF"/><rect x="322.7" y="271.0" width="22.7" height="25.0" fill="#2D7DFF"/><rect x="254.7" y="296.0" width="22.7" height="25.0" fill="#2D7DFF"/><rect x="300.0" y="296.0" width="22.7" height="25.0" fill="#2D7DFF"/><rect x="345.3" y="296.0" width="22.7" height="25.0" fill="#2D7DFF"/><rect x="232.0" y="321.0" width="22.7" height="25.0" fill="#2D7DFF"/><rect x="277.3" y="321.0" width="22.7" height="25.0" fill="#2D7DFF"/><rect x="322.7" y="321.0" width="22.7" height="25.0" fill="#2D7DFF"/><rect x="254.7" y="346.0" width="22.7" height="25.0" fill="#2D7DFF"/><rect x="300.0" y="346.0" width="22.7" height="25.0" fill="#2D7DFF"/><rect x="345.3" y="346.0" width="22.7" height="25.0" fill="#2D7DFF"/><rect x="232.0" y="371.0" width="22.7" height="25.0" fill="#2D7DFF"/><rect x="277.3" y="371.0" width="22.7" height="25.0" fill="#2D7DFF"/><rect x="322.7" y="371.0" width="22.7" height="25.0" fill="#2D7DFF"/></g><rect x="232" y="246" width="136" height="150" rx="10" fill="none" stroke="#141414" stroke-width="6"/><path d="M 204 470 L 396 470" stroke="#141414" stroke-width="5" opacity=".45"/></svg>