<svg xmlns="http://www.w3.org/2000/svg" viewBox="0 0 600 600" width="600" height="600" role="img"><rect width="600" height="600" fill="#FBF3E4"/><defs><clipPath id="pceyeclearcream"><rect x="206" y="236" width="188" height="254" rx="16"/></clipPath></defs><rect x="200" y="96" width="200" height="408" rx="38" fill="#8A8A8A"/><rect x="200" y="96" width="200" height="408" rx="38" fill="#FBF3E4" fill-opacity=".35"/><rect x="190" y="86" width="220" height="428" rx="46" fill="#FBF3E4" fill-opacity=".5" stroke="#141414" stroke-width="9"/><g clip-path="url(#pceyeclearcream)"><rect x="206" y="236" width="188" height="254" fill="#8B2FE8" rx="11.28"/><path d="M 224.8 363.0 Q 300.0 286.8 375.20000000000005 363.0 Q 300.0 439.20000000000005 224.8 363.0 Z" fill="#FBF3E4"/><circle cx="300.0" cy="363.0" r="40.64" fill="#8B2FE8"/><circle cx="312.7" cy="350.3" r="12.700000000000001" fill="#FBF3E4"/></g><rect x="206" y="236" width="188" height="254" rx="16" fill="none" stroke="#141414" stroke-width="6"/><rect x="212" y="110" width="104" height="104" rx="28" fill="#141414" opacity=".92"/><circle cx="243" cy="141" r="17" fill="#FBF3E4"/><circle cx="243" cy="141" r="8" fill="#141414"/><circle cx="286" cy="141" r="17" fill="#FBF3E4"/><circle cx="286" cy="141" r="8" fill="#141414"/><circle cx="243" cy="184" r="17" fill="#FBF3E4"/><circle cx="243" cy="184" r="8" fill="#141414"/><rect x="418" y="180" width="10" height="46" rx="5" fill="#141414"/><rect x="418" y="240" width="10" height="72" rx="5" fill="#141414"/></svg>