<svg xmlns="http://www.w3.org/2000/svg" viewBox="0 0 600 600" width="600" height="600" role="img"><rect width="600" height="600" fill="#FBF3E4"/><defs><clipPath id="prhighvoltagepink"><rect x="232" y="246" width="136" height="150" rx="10"/></clipPath></defs><path d="M 195 130 L 250 108 C 262 142, 338 142, 350 108 L 405 130 L 470 168 L 432 236 L 396 216 L 396 492 L 204 492 L 204 216 L 168 236 L 130 168 Z" fill="#FF2E93" stroke="#141414" stroke-width="9" stroke-linejoin="round"/><path d="M 250 108 C 262 142, 338 142, 350 108" fill="none" stroke="#141414" stroke-width="9"/><g clip-path="url(#prhighvoltagepink)"><rect x="232" y="246" width="136" height="150" fill="#00E5D0" rx="8.16"/><path d="M 310.88 258.0 L 270.08 324.0 L 297.28 324.0 L 286.4 384.0 L 332.64 312.0 L 304.08 312.0 Z" fill="#FF2E93"/></g><rect x="232" y="246" width="136" height="150" rx="10" fill="none" stroke="#141414" stroke-width="6"/><path d="M 204 470 L 396 470" stroke="#141414" stroke-width="5" opacity=".45"/></svg>