<svg xmlns="http://www.w3.org/2000/svg" viewBox="0 0 600 600" width="600" height="600" role="img"><rect width="600" height="600" fill="#FBF3E4"/><defs><clipPath id="pcredlinetoughred"><rect x="208" y="240" width="184" height="246" rx="16"/></clipPath></defs><rect x="176" y="74" width="248" height="452" rx="54" fill="#141414"/><rect x="188" y="86" width="224" height="428" rx="46" fill="#E03127" stroke="#141414" stroke-width="9"/><circle cx="206" cy="104" r="15" fill="#141414" opacity=".85"/><circle cx="394" cy="104" r="15" fill="#141414" opacity=".85"/><circle cx="206" cy="496" r="15" fill="#141414" opacity=".85"/><circle cx="394" cy="496" r="15" fill="#141414" opacity=".85"/><g clip-path="url(#pcredlinetoughred)"><rect x="208" y="240" width="184" height="246" fill="#FBF3E4" rx="11.04"/><path d="M 226.4 397.44 L 226.4 362.262 Q 235.232 343.32 270.56 313.554 L 317.664 313.554 Q 344.16 343.32 364.76800000000003 354.144 L 373.6 397.44 Z" fill="#E03127"/><rect x="249.952" y="321.67199999999997" width="35.328" height="27.06" rx="5.412" fill="#FBF3E4"/><rect x="294.112" y="321.67199999999997" width="32.38400000000001" height="27.06" rx="5.412" fill="#FBF3E4"/><circle cx="264.672" cy="397.44" r="28.1424" fill="#E03127"/><circle cx="264.672" cy="397.44" r="11.9064" fill="#FBF3E4"/><circle cx="338.27200000000005" cy="397.44" r="28.1424" fill="#E03127"/><circle cx="338.27200000000005" cy="397.44" r="11.9064" fill="#FBF3E4"/><rect x="219.04" y="446.14799999999997" width="77.28" height="8.610000000000001" rx="4.92" fill="#E03127"/><rect x="219.04" y="478.62" width="51.52" height="8.610000000000001" rx="4.92" fill="#E03127"/></g><rect x="208" y="240" width="184" height="246" rx="16" fill="none" stroke="#141414" stroke-width="6"/><rect x="212" y="110" width="104" height="104" rx="28" fill="#141414" opacity=".92"/><circle cx="243" cy="141" r="17" fill="#FBF3E4"/><circle cx="243" cy="141" r="8" fill="#141414"/><circle cx="286" cy="141" r="17" fill="#FBF3E4"/><circle cx="286" cy="141" r="8" fill="#141414"/><circle cx="243" cy="184" r="17" fill="#FBF3E4"/><circle cx="243" cy="184" r="8" fill="#141414"/><rect x="418" y="180" width="10" height="46" rx="5" fill="#141414"/><rect x="418" y="240" width="10" height="72" rx="5" fill="#141414"/></svg>