<svg xmlns="http://www.w3.org/2000/svg" viewBox="0 0 800 600" width="800" height="600" role="img">
<rect width="800" height="600" rx="28" fill="#E03127"/>
<!-- poster card -->
<rect x="48" y="48" width="704" height="504" rx="28" fill="#141414" transform="translate(6,6)" opacity=".96"/>
<rect x="48" y="48" width="704" height="504" rx="28" fill="#FBF3E4" stroke="#141414" stroke-width="6"/>
<!-- screen -->
<rect x="72" y="72" width="656" height="320" rx="20" fill="#141414"/>
<rect x="80" y="80" width="640" height="304" rx="16" fill="#FBF3E4" stroke="#141414" stroke-width="5"/>
<!-- mesh -->
<g opacity=".09" stroke="#141414" stroke-width="1">
  <line x1="96" y1="100" x2="96" y2="368"/><line x1="116" y1="100" x2="116" y2="368"/><line x1="136" y1="100" x2="136" y2="368"/><line x1="156" y1="100" x2="156" y2="368"/><line x1="176" y1="100" x2="176" y2="368"/><line x1="196" y1="100" x2="196" y2="368"/><line x1="216" y1="100" x2="216" y2="368"/><line x1="236" y1="100" x2="236" y2="368"/><line x1="256" y1="100" x2="256" y2="368"/><line x1="276" y1="100" x2="276" y2="368"/><line x1="296" y1="100" x2="296" y2="368"/><line x1="316" y1="100" x2="316" y2="368"/><line x1="336" y1="100" x2="336" y2="368"/><line x1="356" y1="100" x2="356" y2="368"/><line x1="376" y1="100" x2="376" y2="368"/><line x1="396" y1="100" x2="396" y2="368"/><line x1="416" y1="100" x2="416" y2="368"/><line x1="436" y1="100" x2="436" y2="368"/><line x1="456" y1="100" x2="456" y2="368"/><line x1="476" y1="100" x2="476" y2="368"/><line x1="496" y1="100" x2="496" y2="368"/><line x1="516" y1="100" x2="516" y2="368"/><line x1="536" y1="100" x2="536" y2="368"/><line x1="556" y1="100" x2="556" y2="368"/><line x1="576" y1="100" x2="576" y2="368"/><line x1="596" y1="100" x2="596" y2="368"/><line x1="616" y1="100" x2="616" y2="368"/><line x1="636" y1="100" x2="636" y2="368"/><line x1="656" y1="100" x2="656" y2="368"/><line x1="676" y1="100" x2="676" y2="368"/><line x1="696" y1="100" x2="696" y2="368"/>
  <line x1="84" y1="120" x2="712" y2="120"/><line x1="84" y1="140" x2="712" y2="140"/><line x1="84" y1="160" x2="712" y2="160"/><line x1="84" y1="180" x2="712" y2="180"/><line x1="84" y1="200" x2="712" y2="200"/><line x1="84" y1="220" x2="712" y2="220"/><line x1="84" y1="240" x2="712" y2="240"/><line x1="84" y1="260" x2="712" y2="260"/><line x1="84" y1="280" x2="712" y2="280"/><line x1="84" y1="300" x2="712" y2="300"/><line x1="84" y1="320" x2="712" y2="320"/><line x1="84" y1="340" x2="712" y2="340"/><line x1="84" y1="360" x2="712" y2="360"/>
</g>
<!-- print graphic — marshmallow smiley -->
<g transform="translate(400,236)">
  <ellipse cx="0" cy="48" rx="92" ry="14" fill="#141414" opacity=".08"/>
  <circle cx="0" cy="0" r="72" fill="#FFC72C" stroke="#141414" stroke-width="5"/>
  <g transform="translate(0,-4)">
    <rect x="-36" y="-22" width="72" height="44" rx="14" fill="#FBF3E4" stroke="#141414" stroke-width="3.5"/>
    <path d="M-24 0 Q0 -6 24 0" stroke="#8B5A2B" stroke-width="2.3" opacity=".36" fill="none" stroke-linecap="round"/>
    <circle cx="-12" cy="6" r="5.5" fill="#141414"/><circle cx="-12" cy="4" r="1.8" fill="white"/>
    <circle cx="12" cy="6" r="5.5" fill="#141414"/><circle cx="12" cy="4" r="1.8" fill="white"/>
    <path d="M-7 16 Q0 21 7 16" stroke="#141414" stroke-width="2.3" fill="none" stroke-linecap="round"/>
  </g>
</g>
<!-- marshmallow character pulling squeegee — premium -->
<g transform="translate(400,420)">
  <ellipse cx="0" cy="84" rx="72" ry="10" fill="#141414" opacity=".1"/>
  <path d="M-20 36 L-28 72" stroke="#141414" stroke-width="6" stroke-linecap="round"/>
  <path d="M20 36 L28 72" stroke="#141414" stroke-width="6" stroke-linecap="round"/>
  <ellipse cx="-30" cy="80" rx="18" ry="9" fill="#141414"/><ellipse cx="-30" cy="76" rx="18" ry="9" fill="#FFC72C" stroke="#141414" stroke-width="3"/>
  <ellipse cx="30" cy="80" rx="18" ry="9" fill="#141414"/><ellipse cx="30" cy="76" rx="18" ry="9" fill="#FFFFFF" stroke="#141414" stroke-width="3"/>
  <path d="M-44 -12 L-44 36 L44 36 L44 -12 Z" fill="#141414" transform="translate(4,4)" opacity=".96"/>
  <rect x="-44" y="-12" width="88" height="48" rx="12" fill="#FFFFFF" stroke="#141414" stroke-width="4"/>
  <text x="0" y="18" text-anchor="middle" font-family="Archivo Black" font-size="9" fill="#E03127">HAND PULLED</text>
  <g transform="translate(0,-42)">
    <rect x="-48" y="-32" width="96" height="64" rx="18" fill="#141414" transform="translate(5,5)"/>
    <rect x="-48" y="-32" width="96" height="64" rx="18" fill="#FBF3E4" stroke="#141414" stroke-width="4.5"/>
    <path d="M-30 -6 Q0 -12 30 -6" stroke="#8B5A2B" stroke-width="2.6" opacity=".42" fill="none"/>
    <circle cx="-13" cy="-1" r="6" fill="#141414"/><circle cx="13" cy="-1" r="6" fill="#141414"/>
    <ellipse cx="-34" cy="-16" rx="10" ry="5.5" fill="white" opacity=".94"/>
    <path d="M-8 10 Q0 16 8 10" stroke="#141414" stroke-width="2.6" fill="none" stroke-linecap="round"/>
    <path d="M-24 28 C-24 37 -18 40 -12 35.5 C-6 31 -1 39 4 34.5 C9 30 14 35 20 28" fill="#FFC72C" stroke="#141414" stroke-width="2.5" stroke-linejoin="round"/>
  </g>
  <path d="M-42 -2 L-88 18" stroke="#141414" stroke-width="6.5" stroke-linecap="round"/>
  <path d="M42 -2 L88 18" stroke="#141414" stroke-width="6.5" stroke-linecap="round"/>
</g>
<!-- squeegee -->
<g transform="translate(72,412) rotate(-2)">
  <rect x="0" y="24" width="656" height="12" rx="4" fill="#141414"/>
  <rect x="-4" y="0" width="664" height="20" rx="8" fill="#141414" stroke="#FBF3E4" stroke-width="2"/>
  <rect x="6" y="18" width="644" height="22" rx="6" fill="#2D7DFF" stroke="#141414" stroke-width="3.5"/>
  <rect x="280" y="-28" width="96" height="34" rx="10" fill="#FBF3E4" stroke="#141414" stroke-width="3.5"/>
  <rect x="296" y="-18" width="64" height="10" rx="5" fill="#141414"/>
  <rect x="2" y="40" width="652" height="8" rx="4" fill="#FFC72C" opacity=".9"/>
</g>
<!-- label -->
<g transform="translate(400,524)">
  <rect x="-96" y="0" width="192" height="26" rx="13" fill="#141414"/>
  <rect x="-100" y="-4" width="192" height="26" rx="13" fill="#FFC72C" stroke="#141414" stroke-width="3"/>
  <text x="0" y="17" text-anchor="middle" font-family="Archivo Black" font-size="9.5" fill="#141414">WATER-BASED • NO CRACK</text>
</g>
</svg>