<svg xmlns="http://www.w3.org/2000/svg" viewBox="0 0 600 600" width="600" height="600" role="img"><rect width="600" height="600" fill="#FBF3E4"/><defs><clipPath id="prtidalcyan"><rect x="232" y="250" width="136" height="148" rx="10"/></clipPath></defs><path d="M 405 130 L 470 168 L 432 236 L 396 216 Z" fill="#00E5D0" stroke="#141414" stroke-width="9" stroke-linejoin="round"/><path d="M 195 130 L 130 168 L 168 236 L 204 216 Z" fill="#00E5D0" stroke="#141414" stroke-width="9" stroke-linejoin="round"/><path d="M 195 130 L 250 108 C 262 142, 338 142, 350 108 L 405 130 L 396 216 L 396 492 L 204 492 L 204 216 Z" fill="#00E5D0" stroke="#141414" stroke-width="9" stroke-linejoin="round"/><path d="M 250 108 C 262 142, 338 142, 350 108" fill="none" stroke="#141414" stroke-width="9"/><g clip-path="url(#prtidalcyan)"><rect x="232" y="250" width="136" height="148" fill="#141414"/><path d="M 232 264.8 Q 240.5 255.9 249.0 264.8 Q 257.5 273.7 266.0 264.8 Q 274.5 255.9 283.0 264.8 Q 291.5 273.7 300.0 264.8 Q 308.5 255.9 317.0 264.8 Q 325.5 273.7 334.0 264.8 Q 342.5 255.9 351.0 264.8 Q 359.5 273.7 368.0 264.8" stroke="#00E5D0" stroke-width="8.9" fill="none" stroke-linecap="round"/><path d="M 232 294.4 Q 240.5 285.5 249.0 294.4 Q 257.5 303.3 266.0 294.4 Q 274.5 285.5 283.0 294.4 Q 291.5 303.3 300.0 294.4 Q 308.5 285.5 317.0 294.4 Q 325.5 303.3 334.0 294.4 Q 342.5 285.5 351.0 294.4 Q 359.5 303.3 368.0 294.4" stroke="#00E5D0" stroke-width="8.9" fill="none" stroke-linecap="round"/><path d="M 232 324.0 Q 240.5 315.1 249.0 324.0 Q 257.5 332.9 266.0 324.0 Q 274.5 315.1 283.0 324.0 Q 291.5 332.9 300.0 324.0 Q 308.5 315.1 317.0 324.0 Q 325.5 332.9 334.0 324.0 Q 342.5 315.1 351.0 324.0 Q 359.5 332.9 368.0 324.0" stroke="#00E5D0" stroke-width="8.9" fill="none" stroke-linecap="round"/><path d="M 232 353.6 Q 240.5 344.7 249.0 353.6 Q 257.5 362.5 266.0 353.6 Q 274.5 344.7 283.0 353.6 Q 291.5 362.5 300.0 353.6 Q 308.5 344.7 317.0 353.6 Q 325.5 362.5 334.0 353.6 Q 342.5 344.7 351.0 353.6 Q 359.5 362.5 368.0 353.6" stroke="#00E5D0" stroke-width="8.9" fill="none" stroke-linecap="round"/><path d="M 232 383.2 Q 240.5 374.3 249.0 383.2 Q 257.5 392.1 266.0 383.2 Q 274.5 374.3 283.0 383.2 Q 291.5 392.1 300.0 383.2 Q 308.5 374.3 317.0 383.2 Q 325.5 392.1 334.0 383.2 Q 342.5 374.3 351.0 383.2 Q 359.5 392.1 368.0 383.2" stroke="#00E5D0" stroke-width="8.9" fill="none" stroke-linecap="round"/></g><rect x="232" y="250" width="136" height="148" rx="10" fill="none" stroke="#141414" stroke-width="6"/><path d="M 204 470 L 396 470" stroke="#141414" stroke-width="5" opacity=".45"/></svg>